
<svg xmlns="http://www.w3.org/2000/svg" width="64" height="64" fill="#47848f" fill-rule="evenodd"><path d="M23.3 13.756c-8.363-1.523-14.976.07-17.612 4.636-1.967 3.406-1.405 7.923 1.363 12.75a.86.86 0 0 0 1.171.317.86.86 0 0 0 .317-1.171c-2.493-4.35-2.978-8.247-1.366-11.04 2.2-3.792 8.088-5.214 15.82-3.806a.86.86 0 0 0 .997-.69.86.86 0 0 0-.69-.997zM11.4 37c3.382 3.716 7.775 7.202 12.786 10.095C36.328 54.1 49.243 55.98 55.6 51.64a.86.86 0 0 0 .225-1.192.86.86 0 0 0-1.192-.225c-5.697 3.884-17.966 2.106-29.6-4.605-4.86-2.806-9.115-6.182-12.375-9.764a.86.86 0 0 0-1.212-.057.86.86 0 0 0-.057 1.212zm42.178-1.033c5.476-6.47 7.388-12.976 4.758-17.53-1.935-3.352-6.026-5.122-11.464-5.192a.86.86 0 0 0-.869.846.86.86 0 0 0 .846.869c4.9.064 8.415 1.588 10 4.335 2.185 3.784.48 9.586-4.582 15.566a.86.86 0 0 0 .1 1.209.86.86 0 0 0 1.209-.1zM39.504 14.04c-4.95 1.06-10.222 3.135-15.283 6.057C11.697 27.327 3.527 38 4.66 45.72a.86.86 0 0 0 .973.724.86.86 0 0 0 .724-.973c-1.007-6.864 6.737-16.97 18.72-23.9 4.9-2.835 10.013-4.843 14.785-5.866a.86.86 0 0 0 .659-1.018.86.86 0 0 0-1.018-.659z"/><path d="M19.215 51.082C22.078 59.077 26.762 64 32.03 64c3.842 0 7.396-2.62 10.167-7.23a.86.86 0 0 0-.293-1.177.86.86 0 0 0-1.177.293c-2.5 4.143-5.55 6.397-8.697 6.397-4.375 0-8.553-4.4-11.2-11.78a.86.86 0 0 0-1.097-.518.86.86 0 0 0-.518 1.097zm26.153-1.564c1.482-4.737 2.278-10.2 2.278-15.895 0-14.208-4.973-26.456-12.056-29.6a.86.86 0 0 0-1.132.436.86.86 0 0 0 .436 1.132C41.212 8.395 45.93 20.02 45.93 33.624c0 5.524-.77 10.816-2.2 15.383a.86.86 0 0 0 .562 1.075.86.86 0 0 0 1.075-.562zm16.152-.84c0-2.267-1.838-4.105-4.105-4.105S53.3 46.4 53.3 48.678s1.838 4.105 4.105 4.105 4.105-1.838 4.105-4.105zm-1.715 0a2.39 2.39 0 0 1-2.389 2.389 2.39 2.39 0 0 1-2.389-2.389 2.39 2.39 0 0 1 2.389-2.389 2.39 2.39 0 0 1 2.389 2.389z"/><path d="M6.584 52.783c2.267 0 4.105-1.838 4.105-4.105s-1.838-4.105-4.105-4.105a4.1 4.1 0 1 0 .001 8.21zm0-1.715a2.39 2.39 0 0 1-2.389-2.389 2.39 2.39 0 0 1 2.389-2.389 2.39 2.39 0 0 1 2.389 2.389 2.39 2.39 0 0 1-2.389 2.389zM32.03 8.2c2.267 0 4.105-1.838 4.105-4.105S34.296 0 32.03 0s-4.105 1.838-4.105 4.105S29.763 8.2 32.03 8.2zm0-1.715a2.39 2.39 0 0 1-2.389-2.389 2.39 2.39 0 0 1 2.389-2.389 2.39 2.39 0 0 1 2.389 2.389 2.39 2.39 0 0 1-2.389 2.389zm.626 30.04a2.97 2.97 0 1 1-1.254-5.806 2.97 2.97 0 1 1 1.254 5.806z"/></svg>
