<?xml version="1.0" encoding="UTF-8"?><svg xmlns="http://www.w3.org/2000/svg" viewBox="0 0 204.09 144.96"><defs><style>.d{fill:#fff;}.e{fill:#0093c7;fill-rule:evenodd;}</style></defs><g id="a"/><g id="b"><g id="c"><g><g/><polygon class="d" points="111.61 .45 92.06 .45 35.58 144.96 59.93 144.96 68.51 137.44 101.9 51.27 135.65 137.44 144.2 144.96 168.69 144.96 111.61 .45"/><path class="e" d="M102.29,54.98h0Z"/><path class="e" d="M102.04,37.29C45.69,37.29,0,54.45,0,75.63c0,13.84,19.52,25.96,48.78,32.71l3.55-9.07c-12.38-4.74-20.03-11.23-20.03-18.39,0-14.5,31.29-26.25,69.88-26.25s69.88,11.75,69.88,26.25c0,7.19-7.69,13.69-20.14,18.43l3.52,8.99c29.18-6.75,48.64-18.85,48.64-32.67,0-21.18-45.69-38.34-102.04-38.34Z"/><path class="d" d="M177.26,140.38h.66c.28,0,.47,.02,.58,.06,.1,.04,.18,.1,.24,.19,.06,.08,.09,.18,.09,.28,0,.16-.06,.3-.18,.4-.12,.1-.35,.15-.68,.15h-.7v-1.08Zm0,3.09v-1.52h.34c.2,0,.36,.04,.46,.12,.15,.11,.36,.39,.6,.83l.32,.57h.7l-.44-.7c-.21-.33-.38-.57-.53-.71-.08-.07-.18-.14-.3-.19,.31-.02,.56-.13,.74-.33s.28-.42,.28-.68c0-.18-.06-.36-.17-.52s-.26-.28-.45-.35c-.19-.06-.49-.1-.91-.1h-1.23v3.58h.58Zm2.25-4.26c.44,.24,.79,.58,1.04,1.03,.25,.45,.37,.91,.37,1.39s-.12,.94-.37,1.38c-.25,.44-.59,.78-1.03,1.03s-.9,.37-1.38,.37-.94-.12-1.38-.37c-.44-.25-.78-.59-1.03-1.03-.25-.44-.37-.9-.37-1.38s.13-.95,.37-1.39,.6-.79,1.04-1.03c.44-.24,.9-.36,1.37-.36s.92,.12,1.36,.36m-3-.48c-.53,.29-.95,.7-1.25,1.23s-.45,1.09-.45,1.67,.15,1.12,.44,1.65c.29,.53,.7,.94,1.23,1.23,.53,.29,1.08,.44,1.66,.44s1.13-.15,1.65-.44c.53-.29,.94-.7,1.23-1.23,.29-.53,.44-1.08,.44-1.65s-.15-1.13-.45-1.67-.71-.94-1.24-1.23c-.53-.29-1.08-.43-1.63-.43s-1.1,.14-1.64,.43"/></g></g></g></svg>