<?xml version="1.0" encoding="UTF-8"?><svg xmlns="http://www.w3.org/2000/svg" viewBox="0 0 264.42 57.32"><defs><style>.d,.e{fill:#fff;}.e{fill-rule:evenodd;}</style></defs><g id="a"/><g id="b"><g id="c"><g><g><path class="d" d="M98.88,40.09h1.87c.27,0,.52,.03,.77,.08,.25,.05,.47,.14,.65,.26,.19,.12,.34,.29,.45,.49,.11,.21,.17,.46,.17,.77,0,.35-.06,.63-.18,.85-.12,.21-.28,.38-.49,.5-.2,.12-.44,.2-.71,.24-.27,.04-.55,.06-.84,.06h-.71v2.3h-.99v-5.55Zm1.58,2.41c.14,0,.29,0,.44-.02,.15,0,.29-.04,.42-.09,.13-.05,.23-.13,.31-.23,.08-.1,.12-.25,.12-.44,0-.17-.04-.31-.11-.41s-.17-.18-.28-.23c-.12-.06-.24-.09-.38-.11-.14-.02-.28-.02-.41-.02h-.71v1.56h.6Z"/><path class="d" d="M105.35,40.09h.85l2.39,5.55h-1.13l-.52-1.27h-2.41l-.5,1.27h-1.11l2.41-5.55Zm1.25,3.43l-.85-2.26-.87,2.26h1.72Z"/><path class="d" d="M110.09,40.99h-1.7v-.89h4.39v.89h-1.7v4.66h-.99v-4.66Z"/><path class="d" d="M113.92,40.09h.99v2.21h2.59v-2.21h.99v5.55h-.99v-2.45h-2.59v2.45h-.99v-5.55Z"/><path class="d" d="M119.89,42.89c0-.44,.07-.85,.22-1.21,.15-.36,.35-.67,.61-.93,.26-.26,.57-.45,.93-.59,.36-.14,.75-.21,1.18-.21,.43,0,.83,.06,1.19,.19s.67,.33,.93,.58c.26,.26,.47,.56,.61,.93s.22,.76,.22,1.21-.07,.83-.22,1.18-.35,.66-.61,.92c-.26,.26-.57,.46-.93,.6-.36,.14-.76,.22-1.19,.22-.43,0-.82-.07-1.18-.21-.36-.14-.67-.33-.93-.59-.26-.25-.46-.56-.61-.91-.15-.36-.22-.75-.22-1.18Zm1.03-.06c0,.3,.05,.57,.14,.82,.09,.25,.22,.47,.39,.65,.17,.18,.37,.33,.6,.43s.49,.16,.78,.16,.55-.05,.78-.16c.24-.1,.44-.25,.6-.43,.17-.18,.3-.4,.39-.65s.14-.53,.14-.82c0-.28-.05-.54-.14-.78s-.22-.45-.39-.63c-.17-.18-.37-.32-.6-.42-.23-.1-.5-.15-.78-.15s-.55,.05-.78,.15-.43,.24-.6,.42c-.17,.18-.3,.39-.39,.63-.09,.24-.14,.5-.14,.78Z"/><path class="d" d="M132.11,45.23c-.68,.37-1.45,.55-2.3,.55-.43,0-.82-.07-1.18-.21-.36-.14-.67-.33-.93-.59-.26-.25-.46-.56-.61-.91-.15-.36-.22-.75-.22-1.18s.07-.85,.22-1.21c.15-.36,.35-.67,.61-.93,.26-.26,.57-.45,.93-.59,.36-.14,.75-.21,1.18-.21s.82,.05,1.19,.15c.37,.1,.7,.28,1,.55l-.73,.74c-.18-.17-.39-.31-.65-.4s-.52-.14-.8-.14-.55,.05-.78,.15-.43,.24-.6,.42c-.17,.18-.3,.39-.39,.63-.09,.24-.14,.5-.14,.78,0,.3,.05,.57,.14,.82,.09,.25,.22,.47,.39,.65,.17,.18,.37,.33,.6,.43s.49,.16,.78,.16c.25,0,.49-.02,.71-.07,.22-.05,.42-.12,.59-.22v-1.31h-1.14v-.89h2.12v2.84Z"/><path class="d" d="M133.74,40.09h3.68v.89h-2.69v1.36h2.55v.89h-2.55v1.51h2.83v.89h-3.82v-5.55Z"/><path class="d" d="M139,40.09h1.31l2.69,4.12h.02v-4.12h.99v5.55h-1.25l-2.74-4.26h-.02v4.26h-.99v-5.55Z"/><path class="d" d="M152.29,41.39c-.2-.22-.4-.37-.59-.44-.19-.07-.38-.11-.58-.11-.29,0-.55,.05-.78,.15s-.43,.24-.6,.42c-.17,.18-.3,.39-.39,.63-.09,.24-.14,.5-.14,.78,0,.3,.05,.57,.14,.82,.09,.25,.22,.47,.39,.65,.17,.18,.37,.33,.6,.43s.49,.16,.78,.16c.22,0,.44-.05,.65-.16s.41-.28,.59-.51l.82,.58c-.25,.34-.56,.6-.92,.75-.36,.16-.74,.23-1.15,.23-.43,0-.82-.07-1.18-.21-.36-.14-.67-.33-.93-.59-.26-.25-.46-.56-.61-.91-.15-.36-.22-.75-.22-1.18s.07-.85,.22-1.21c.15-.36,.35-.67,.61-.93,.26-.26,.57-.45,.93-.59,.36-.14,.75-.21,1.18-.21,.38,0,.72,.07,1.05,.2s.62,.36,.9,.68l-.77,.56Z"/><path class="d" d="M154.02,42.89c0-.44,.07-.85,.22-1.21,.15-.36,.35-.67,.61-.93,.26-.26,.57-.45,.93-.59,.36-.14,.75-.21,1.18-.21,.43,0,.83,.06,1.19,.19s.67,.33,.93,.58c.26,.26,.47,.56,.61,.93s.22,.76,.22,1.21-.07,.83-.22,1.18-.35,.66-.61,.92c-.26,.26-.57,.46-.93,.6-.36,.14-.76,.22-1.19,.22-.43,0-.82-.07-1.18-.21-.36-.14-.67-.33-.93-.59-.26-.25-.46-.56-.61-.91-.15-.36-.22-.75-.22-1.18Zm1.03-.06c0,.3,.05,.57,.14,.82,.09,.25,.22,.47,.39,.65,.17,.18,.37,.33,.6,.43s.49,.16,.78,.16,.55-.05,.78-.16c.24-.1,.44-.25,.6-.43,.17-.18,.3-.4,.39-.65s.14-.53,.14-.82c0-.28-.05-.54-.14-.78s-.22-.45-.39-.63c-.17-.18-.37-.32-.6-.42-.23-.1-.5-.15-.78-.15s-.55,.05-.78,.15-.43,.24-.6,.42c-.17,.18-.3,.39-.39,.63-.09,.24-.14,.5-.14,.78Z"/><path class="d" d="M161.31,40.09h1.31l2.69,4.12h.02v-4.12h.99v5.55h-1.25l-2.74-4.26h-.02v4.26h-.99v-5.55Z"/><path class="d" d="M169.15,40.99h-1.7v-.89h4.39v.89h-1.7v4.66h-.99v-4.66Z"/><path class="d" d="M172.97,40.09h1.93c.27,0,.52,.02,.77,.07,.25,.05,.47,.14,.66,.25,.19,.12,.35,.28,.46,.49s.17,.46,.17,.78c0,.4-.11,.74-.33,1.01-.22,.27-.54,.44-.95,.49l1.47,2.45h-1.19l-1.29-2.35h-.72v2.35h-.99v-5.55Zm1.76,2.35c.14,0,.28,0,.42-.02s.27-.04,.39-.09c.12-.05,.21-.13,.29-.23s.11-.24,.11-.43c0-.16-.03-.29-.1-.39-.07-.1-.16-.17-.27-.22s-.23-.08-.36-.1c-.13-.02-.26-.02-.39-.02h-.85v1.51h.77Z"/><path class="d" d="M178.08,42.89c0-.44,.07-.85,.22-1.21,.15-.36,.35-.67,.61-.93,.26-.26,.57-.45,.93-.59,.36-.14,.75-.21,1.18-.21,.43,0,.83,.06,1.19,.19s.67,.33,.93,.58c.26,.26,.47,.56,.61,.93s.22,.76,.22,1.21-.07,.83-.22,1.18-.35,.66-.61,.92c-.26,.26-.57,.46-.93,.6-.36,.14-.76,.22-1.19,.22-.43,0-.82-.07-1.18-.21-.36-.14-.67-.33-.93-.59-.26-.25-.46-.56-.61-.91-.15-.36-.22-.75-.22-1.18Zm1.03-.06c0,.3,.05,.57,.14,.82,.09,.25,.22,.47,.39,.65,.17,.18,.37,.33,.6,.43s.49,.16,.78,.16,.55-.05,.78-.16c.24-.1,.44-.25,.6-.43,.17-.18,.3-.4,.39-.65s.14-.53,.14-.82c0-.28-.05-.54-.14-.78s-.22-.45-.39-.63c-.17-.18-.37-.32-.6-.42-.23-.1-.5-.15-.78-.15s-.55,.05-.78,.15-.43,.24-.6,.42c-.17,.18-.3,.39-.39,.63-.09,.24-.14,.5-.14,.78Z"/><path class="d" d="M185.37,40.09h.99v4.66h2.36v.89h-3.35v-5.55Z"/><path class="d" d="M193.82,40.99h-1.7v-.89h4.39v.89h-1.7v4.66h-.99v-4.66Z"/><path class="d" d="M197.64,40.09h3.68v.89h-2.69v1.36h2.55v.89h-2.55v1.51h2.83v.89h-3.82v-5.55Z"/><path class="d" d="M206.71,41.39c-.2-.22-.4-.37-.59-.44-.19-.07-.38-.11-.58-.11-.29,0-.55,.05-.78,.15s-.43,.24-.6,.42c-.17,.18-.3,.39-.39,.63-.09,.24-.14,.5-.14,.78,0,.3,.05,.57,.14,.82,.09,.25,.22,.47,.39,.65,.17,.18,.37,.33,.6,.43s.49,.16,.78,.16c.22,0,.44-.05,.65-.16s.41-.28,.59-.51l.82,.58c-.25,.34-.56,.6-.92,.75-.36,.16-.74,.23-1.15,.23-.43,0-.82-.07-1.18-.21-.36-.14-.67-.33-.93-.59-.26-.25-.46-.56-.61-.91-.15-.36-.22-.75-.22-1.18s.07-.85,.22-1.21c.15-.36,.35-.67,.61-.93,.26-.26,.57-.45,.93-.59,.36-.14,.75-.21,1.18-.21,.38,0,.72,.07,1.05,.2s.62,.36,.9,.68l-.77,.56Z"/><path class="d" d="M208.73,40.09h.99v2.21h2.59v-2.21h.99v5.55h-.99v-2.45h-2.59v2.45h-.99v-5.55Z"/><path class="d" d="M215,40.09h1.31l2.69,4.12h.02v-4.12h.99v5.55h-1.25l-2.74-4.26h-.02v4.26h-.99v-5.55Z"/><path class="d" d="M221.41,42.89c0-.44,.07-.85,.22-1.21,.15-.36,.35-.67,.61-.93,.26-.26,.57-.45,.93-.59,.36-.14,.75-.21,1.18-.21,.43,0,.83,.06,1.19,.19s.67,.33,.93,.58c.26,.26,.47,.56,.61,.93s.22,.76,.22,1.21-.07,.83-.22,1.18-.35,.66-.61,.92c-.26,.26-.57,.46-.93,.6-.36,.14-.76,.22-1.19,.22-.43,0-.82-.07-1.18-.21-.36-.14-.67-.33-.93-.59-.26-.25-.46-.56-.61-.91-.15-.36-.22-.75-.22-1.18Zm1.03-.06c0,.3,.05,.57,.14,.82,.09,.25,.22,.47,.39,.65,.17,.18,.37,.33,.6,.43s.49,.16,.78,.16,.55-.05,.78-.16c.24-.1,.44-.25,.6-.43,.17-.18,.3-.4,.39-.65s.14-.53,.14-.82c0-.28-.05-.54-.14-.78s-.22-.45-.39-.63c-.17-.18-.37-.32-.6-.42-.23-.1-.5-.15-.78-.15s-.55,.05-.78,.15-.43,.24-.6,.42c-.17,.18-.3,.39-.39,.63-.09,.24-.14,.5-.14,.78Z"/><path class="d" d="M228.7,40.09h.99v4.66h2.36v.89h-3.35v-5.55Z"/><path class="d" d="M232.93,42.89c0-.44,.07-.85,.22-1.21,.15-.36,.35-.67,.61-.93,.26-.26,.57-.45,.93-.59,.36-.14,.75-.21,1.18-.21,.43,0,.83,.06,1.19,.19s.67,.33,.93,.58c.26,.26,.47,.56,.61,.93s.22,.76,.22,1.21-.07,.83-.22,1.18-.35,.66-.61,.92c-.26,.26-.57,.46-.93,.6-.36,.14-.76,.22-1.19,.22-.43,0-.82-.07-1.18-.21-.36-.14-.67-.33-.93-.59-.26-.25-.46-.56-.61-.91-.15-.36-.22-.75-.22-1.18Zm1.03-.06c0,.3,.05,.57,.14,.82,.09,.25,.22,.47,.39,.65,.17,.18,.37,.33,.6,.43s.49,.16,.78,.16,.55-.05,.78-.16c.24-.1,.44-.25,.6-.43,.17-.18,.3-.4,.39-.65s.14-.53,.14-.82c0-.28-.05-.54-.14-.78s-.22-.45-.39-.63c-.17-.18-.37-.32-.6-.42-.23-.1-.5-.15-.78-.15s-.55,.05-.78,.15-.43,.24-.6,.42c-.17,.18-.3,.39-.39,.63-.09,.24-.14,.5-.14,.78Z"/><path class="d" d="M245.15,45.23c-.68,.37-1.45,.55-2.3,.55-.43,0-.82-.07-1.18-.21-.36-.14-.67-.33-.93-.59-.26-.25-.46-.56-.61-.91-.15-.36-.22-.75-.22-1.18s.07-.85,.22-1.21c.15-.36,.35-.67,.61-.93,.26-.26,.57-.45,.93-.59,.36-.14,.75-.21,1.18-.21s.82,.05,1.19,.15c.37,.1,.7,.28,1,.55l-.73,.74c-.18-.17-.39-.31-.65-.4s-.52-.14-.8-.14-.55,.05-.78,.15-.43,.24-.6,.42c-.17,.18-.3,.39-.39,.63-.09,.24-.14,.5-.14,.78,0,.3,.05,.57,.14,.82,.09,.25,.22,.47,.39,.65,.17,.18,.37,.33,.6,.43s.49,.16,.78,.16c.25,0,.49-.02,.71-.07,.22-.05,.42-.12,.59-.22v-1.31h-1.14v-.89h2.12v2.84Z"/><path class="d" d="M248.14,43.27l-2.09-3.17h1.24l1.36,2.21,1.38-2.21h1.18l-2.09,3.17v2.38h-.99v-2.38Z"/></g><g><rect class="d" x="82.19" y=".26" width=".36" height="56.81"/><rect class="d" x="81.94" width=".87" height="57.32"/></g><g><polygon class="e" points="35.32 16.29 50.02 53.8 58.51 53.8 38.82 3.52 31.82 3.52 12.34 53.8 20.79 53.8 35.32 16.29"/><polygon class="d" points="38.71 3.68 31.93 3.68 12.34 53.8 20.79 53.8 23.76 51.19 35.34 21.3 47.05 51.19 50.02 53.8 58.51 53.8 38.71 3.68"/><path class="e" d="M35.48,22.59h0Z"/><path class="e" d="M35.4,16.45C15.85,16.45,0,22.41,0,29.75c0,4.8,6.77,9.01,16.92,11.34l1.23-3.15c-4.29-1.64-6.95-3.89-6.95-6.38,0-5.03,10.85-9.11,24.24-9.11s24.24,4.08,24.24,9.11c0,2.49-2.67,4.75-6.99,6.39l1.22,3.12c10.12-2.34,16.87-6.54,16.87-11.33,0-7.34-15.85-13.3-35.4-13.3Z"/></g><g><path class="d" d="M148.93,13.16h-4.97l-8.84,14.46-8.87-14.46h-5.05l10.76,17.35c.22,.37,.47,.69,.74,.96,.26,.26,.59,.47,.96,.61,.37,.14,.83,.21,1.38,.21s.99-.07,1.36-.21c.37-.14,.7-.34,.97-.61,.27-.27,.52-.59,.74-.96l10.81-17.35Zm-36.59,18.72c1.38,0,2.53-.11,3.46-.34,.92-.23,1.66-.6,2.2-1.1,.54-.5,.93-1.17,1.16-1.99,.23-.82,.34-1.82,.34-3V13.16h-4.14v12.13c0,.77-.1,1.38-.31,1.82-.21,.44-.57,.75-1.06,.93-.49,.18-1.15,.27-1.98,.26h-6.29c-.83,0-1.49-.08-1.98-.26-.49-.18-.85-.49-1.06-.92-.21-.44-.32-1.04-.31-1.8V13.16h-4.2v12.3c0,1.18,.11,2.18,.34,3,.23,.82,.62,1.48,1.16,1.99,.54,.5,1.27,.87,2.2,1.1,.92,.23,2.07,.34,3.44,.34h7.03Z"/><path class="d" d="M192.26,32.29c.42,0,.78-.05,1.09-.17,.32-.12,.56-.3,.73-.56,.17-.26,.26-.59,.26-1V13.16h-3.95v13.53l-13.75-13.26c-.2-.21-.46-.37-.78-.5-.31-.12-.71-.18-1.17-.19-.44,0-.83,.06-1.16,.19-.33,.12-.59,.31-.78,.57-.19,.26-.28,.58-.28,.97V31.88h3.87v-13.31l13.64,12.85c.33,.31,.68,.54,1.06,.68,.38,.14,.78,.21,1.22,.2m34.39-8.12h14.67v-3.32h-14.67v3.32Zm-22.54,0h10.5v.96c0,.66-.05,1.2-.16,1.62-.11,.42-.29,.75-.54,.97-.25,.23-.57,.38-.97,.47-.4,.09-.9,.13-1.48,.12h-7.05c-.61,0-1.12-.04-1.53-.12-.41-.09-.74-.24-.98-.46-.24-.22-.42-.53-.52-.92-.11-.39-.16-.9-.16-1.51v-5.52c0-.75,.08-1.35,.27-1.8,.19-.44,.51-.75,.98-.95,.46-.19,1.11-.28,1.93-.27h14.3c.01-2.23-.36-3.6-3.76-3.6h-10.73c-1.37,0-2.52,.11-3.44,.34-.92,.23-1.66,.6-2.2,1.1-.54,.5-.93,1.17-1.16,1.99-.23,.82-.34,1.82-.34,3v5.87c0,1.18,.11,2.17,.34,3,.23,.82,.62,1.48,1.16,1.99,.54,.5,1.27,.87,2.2,1.1,.92,.23,2.07,.34,3.44,.34h7.38c1.39,0,2.54-.11,3.48-.34,.93-.23,1.67-.6,2.21-1.1,.54-.5,.93-1.17,1.17-1.99,.23-.82,.34-1.82,.34-3v-4.61h-14.67v3.32Zm37.32,7.71v-3.54h-13.07c-.61,0-1.11-.04-1.5-.13-.39-.09-.7-.24-.91-.45-.22-.21-.37-.51-.46-.88-.09-.37-.13-.84-.12-1.4v-5.9c0-.54,.04-1,.13-1.37,.09-.37,.24-.66,.46-.89,.22-.22,.53-.38,.91-.48,.39-.1,.89-.15,1.49-.15h12.96v-3.54h-12.96c-1.37,0-2.52,.11-3.44,.34-.92,.23-1.65,.6-2.19,1.1-.54,.5-.93,1.17-1.16,1.99-.23,.82-.34,1.82-.34,3v5.87c0,1.18,.11,2.17,.34,3,.23,.82,.62,1.48,1.16,1.99,.54,.5,1.27,.87,2.19,1.1,.92,.23,2.07,.34,3.44,.34h13.07Zm21.22,0v-3.57h-11.12c-.87,0-1.55-.1-2.04-.3-.49-.2-.83-.53-1.02-.97-.2-.44-.29-1.03-.28-1.75V13.16h-4.14v12.3c0,1.18,.11,2.18,.34,3,.23,.82,.62,1.48,1.16,1.99,.54,.5,1.27,.87,2.19,1.1,.92,.23,2.07,.34,3.44,.34h11.47Zm-96.5,0h4.83l-10.81-17.29c-.22-.36-.46-.68-.73-.95-.27-.27-.6-.49-.99-.65-.38-.16-.86-.23-1.41-.24-.56,0-1.04,.08-1.43,.24-.39,.16-.72,.37-1,.65-.27,.27-.52,.59-.73,.95l-10.87,17.29h4.8c5.05-8.18,3.81-6.22,9.14-14.9,5.85,9.54,3.3,5.55,9.19,14.9Z"/></g><path class="d" d="M262.18,14.27h.35c.15,0,.25,.01,.31,.03,.06,.02,.1,.06,.13,.1,.03,.04,.05,.1,.05,.15,0,.09-.03,.16-.1,.21-.06,.05-.19,.08-.37,.08h-.37v-.58Zm0,1.66v-.81h.18c.11,0,.19,.02,.25,.07,.08,.06,.19,.21,.32,.45l.17,.3h.38l-.23-.38c-.11-.18-.21-.3-.28-.38-.04-.04-.09-.07-.16-.1,.17-.01,.3-.07,.4-.17,.1-.1,.15-.23,.15-.37,0-.1-.03-.19-.09-.28-.06-.09-.14-.15-.24-.19-.1-.03-.26-.05-.49-.05h-.66v1.92h.31Zm1.2-2.28c.24,.13,.42,.31,.55,.55,.13,.24,.2,.49,.2,.74s-.06,.5-.2,.74c-.13,.24-.31,.42-.55,.55-.24,.13-.48,.2-.74,.2s-.5-.06-.74-.2c-.24-.13-.42-.31-.55-.55-.13-.23-.2-.48-.2-.74s.07-.51,.2-.74c.13-.24,.32-.42,.56-.55,.24-.13,.48-.19,.73-.19s.49,.06,.73,.19m-1.6-.26c-.28,.15-.51,.37-.67,.66-.16,.29-.24,.58-.24,.89s.08,.6,.24,.88c.16,.28,.38,.5,.66,.66,.28,.16,.58,.23,.89,.23s.6-.08,.89-.23c.28-.16,.5-.38,.66-.66,.16-.28,.23-.58,.23-.88s-.08-.61-.24-.89c-.16-.29-.38-.5-.66-.66-.29-.15-.58-.23-.87-.23s-.59,.08-.87,.23"/></g></g></g></svg>